:SAMPLES-PER-SECOND 30
:FULLY-SPECIFIED
:DEGREES
17
root  -45.2007 18.423 1.76843 84.0264 80.6084 43.2742
RightUpLeg  -2.65754 5.82334 1.86802
RightLeg  62.5995 5.80195 -10.3406
RightFoot  -11.5501 0.103146 -7.66533
RightToes  5.82063e-011 -1.59028e-015 9.93923e-017
Spine  44.5453 1.24606 -8.78469
Spine1  -7.33676 -1.99397 -5.85907
HEad  -53.8157 1.45338 10.8369
LeftShoulder1  9.93923e-017 0 1.22299e-017
LeftArm  22.6783 -41.1848 -77.2388
LeftForeArm  -3.31997 -20.7321 11.0689
LeftHand  -2.05276 0.333955 32.332
RightShoulder  1.98785e-016 -4.96962e-017 1.55301e-017
RightArm  -6.613 25.7136 99.8982
RightForeArm  25.756 -1.09036 -1.33789
RightHand  9.47338 -21.7413 -48.4433
LeftUpLeg  -61.5197 -5.86554 -1.04777
LeftLeg  124.284 -9.6161 -6.84123
LeftFoot  -6.74966 0.0606663 -1.33226
LeftToes  2.21007e-009 5.55039e-011 -9.07147e-011
18
root  -44.3761 18.5572 1.52178 94.3299 80.4093 52.1147
RightUpLeg  -3.41623 4.12653 0.50798
RightLeg  60.8047 6.40663 -8.23437
RightFoot  -6.40091 0.438756 -7.45842
RightToes  5.82063e-011 -1.59028e-015 9.93923e-017
Spine  45.011 1.33922 -10.5544
Spine1  -9.00709 -3.20088 -1.38437
HEad  -53.0377 2.65024 9.22027
LeftShoulder1  9.93923e-017 0 1.22299e-017
LeftArm  8.32459 -48.984 -77.1606
LeftForeArm  9.60803 -14.4813 5.66677
LeftHand  -1.72918 0.640186 29.5894
RightShoulder  1.98785e-016 -4.96962e-017 1.55301e-017
RightArm  -7.09426 24.1008 100.02
RightForeArm  28.0888 -0.480608 -0.677986
RightHand  9.66112 -21.8363 -49.1646
LeftUpLeg  -60.2655 -7.73473 -2.5266
LeftLeg  121.946 -10.1096 -6.51033
LeftFoot  -6.80983 -0.0223443 0.0340588
LeftToes  2.21007e-009 5.55039e-011 -9.07147e-011
19
root  -43.672 18.826 1.14798 98.9639 80.9678 55.9644
RightUpLeg  -4.54191 3.65159 -0.17695
RightLeg  60.4568 8.02516 -4.83525
RightFoot  0.189523 0.746018 -6.43419
RightToes  5.82063e-011 -1.59028e-015 9.93923e-017
Spine  45.6996 1.0962 -10.6253
Spine1  -9.39205 -3.78922 0.655734
HEad  -53.3388 3.75267 7.37789
LeftShoulder1  9.93923e-017 0 1.22299e-017
LeftArm  4.54596 -55.4399 -77.4012
LeftForeArm  12.2189 -8.74955 5.31744
LeftHand  -1.51074 0.859427 27.6529
RightShoulder  1.98785e-016 -4.96962e-017 1.55301e-017
RightArm  -6.92102 23.4932 100.143
RightForeArm  29.5038 -0.669871 -0.0104294
RightHand  9.81374 -21.9136 -49.7402
LeftUpLeg  -59.0384 -9.6455 -2.74403
LeftLeg  119.483 -9.77544 -7.53493
LeftFoot  -6.67931 -0.0174803 -0.0357387
LeftToes  2.21007e-009 5.55039e-011 -9.07147e-011
20
root  -43.088 19.1592 0.698161 94.1681 82.231 50.6895
RightUpLeg  -6.89523 4.2082 -0.518908
RightLeg  62.5229 9.90208 -1.24761
RightFoot  5.9072 0.721709 -4.35904
RightToes  5.82063e-011 -1.59028e-015 9.93923e-017
Spine  46.7706 1.13152 -9.91751
Spine1  -10.1092 -3.65965 1.35132
HEad  -54.0055 4.81138 5.7104
LeftShoulder1  9.93923e-017 0 1.22299e-017
LeftArm  5.635 -59.9812 -77.0261
LeftForeArm  9.47676 -5.09735 5.77795
LeftHand  -1.25458 1.17858 25.4791
RightShoulder  1.98785e-016 -4.96962e-017 1.55301e-017
RightArm  -6.2755 23.2176 100.404
RightForeArm  30.7448 -0.768354 0.486606
RightHand  9.94588 -22.0148 -50.119
LeftUpLeg  -57.7818 -10.3641 -2.41749
LeftLeg  117.532 -9.49356 -8.48738
LeftFoot  -6.75269 -0.0104165 -0.162261
LeftToes  2.21007e-009 5.55039e-011 -9.07147e-011
21
root  -42.5127 19.4848 0.186828 76.8909 83.7921 33.1464
RightUpLeg  -10.5606 4.75706 -0.608662
RightLeg  67.3554 11.0532 1.28378
RightFoot  7.52743 0.362587 -1.94321
RightToes  5.82063e-011 -1.59028e-015 9.93923e-017
Spine  48.4023 1.47267 -8.2836
Spine1  -11.722 -2.72007 1.31938
HEad  -54.4673 5.6557 4.11195
LeftShoulder1  9.93923e-017 0 1.22299e-017
LeftArm  6.64718 -62.5456 -77.4566
LeftForeArm  7.44577 -1.7694 5.22449
LeftHand  -0.844986 1.69971 21.335
RightShoulder  1.98785e-016 -4.96962e-017 1.55301e-017
RightArm  -5.88555 22.6192 99.9089
RightForeArm  32.2054 -0.450507 0.884761
RightHand  10.1066 -22.136 -50.5764
LeftUpLeg  -56.0201 -9.58914 -2.16832
LeftLeg  115.727 -10.1158 -7.73562
LeftFoot  -7.05641 -0.0401109 0.354499
LeftToes  2.21007e-009 5.55039e-011 -9.07147e-011
22
root  -41.848 19.8072 -0.411275 45.7543 84.853 2.18666
RightUpLeg  -15.1063 4.60764 -0.27172
RightLeg  74.5818 11.3811 2.81783
RightFoot  4.46031 0.0939363 -0.566826
RightToes  5.82063e-011 -1.59028e-015 9.93923e-017
Spine  50.1068 1.49423 -5.30492
Spine1  -12.5719 -1.36991 0.68113
HEad  -55.253 6.34701 2.25036
LeftShoulder1  9.93923e-017 0 1.22299e-017
LeftArm  8.5989 -63.7244 -80.3747
LeftForeArm  6.775 0.811882 4.72496
LeftHand  -0.519339 2.06555 17.4613
RightShoulder  1.98785e-016 -4.96962e-017 1.55301e-017
RightArm  -5.41799 22.2163 98.4744
RightForeArm  33.1488 -0.13875 1.40337
RightHand  10.2996 -22.2639 -51.1718
LeftUpLeg  -53.483 -8.23853 -1.82023
LeftLeg  113.495 -11.2897 -5.71122
LeftFoot  -7.47475 -0.0445464 0.429682
LeftToes  2.21007e-009 5.55039e-011 -9.07147e-011
23
root  -41.1328 20.1284 -1.08981 9.76151 84.4613 -33.194
RightUpLeg  -20.488 4.11083 0.451996
RightLeg  83.4823 11.2135 4.40027
RightFoot  -1.32247 0.0620942 -0.622524
RightToes  5.82063e-011 -1.59028e-015 9.93923e-017
Spine  51.7728 0.943967 -1.70364
Spine1  -12.5348 -0.187555 0.0213473
HEad  -56.3603 7.17699 0.536813
LeftShoulder1  9.93923e-017 0 1.22299e-017
LeftArm  9.91038 -63.6851 -83.5783
LeftForeArm  6.61352 1.47071 4.71161
LeftHand  -0.586529 2.04803 18.6747
RightShoulder  1.98785e-016 -4.96962e-017 1.55301e-017
RightArm  -4.26765 22.3116 97.095
RightForeArm  33.1828 0.193121 2.0364
RightHand  10.4457 -22.395 -51.5018
LeftUpLeg  -50.5027 -7.20312 -1.04789
LeftLeg  111.031 -12.174 -3.98039
LeftFoot  -7.86193 -0.0287216 0.112821
LeftToes  2.21007e-009 5.55039e-011 -9.07147e-011
24
root  -40.4462 20.4152 -1.78452 -15.059 82.4019 -57.3049
RightUpLeg  -27.0826 4.00024 1.32813
RightLeg  93.1093 10.4963 6.40368
RightFoot  -7.57545 0.0753986 -1.65914
RightToes  5.82063e-011 -1.59028e-015 9.93923e-017
Spine  53.4144 0.349633 1.30695
Spine1  -12.5513 0.784603 -0.0976506
HEad  -57.1959 8.20718 -0.409128
LeftShoulder1  9.93923e-017 0 1.22299e-017
LeftArm  9.77902 -62.8335 -84.4966
LeftForeArm  5.16802 1.29799 4.40307
LeftHand  -1.04135 1.73496 25.1348
RightShoulder  1.98785e-016 -4.96962e-017 1.55301e-017
RightArm  -2.65841 22.519 96.3967
RightForeArm  33.0607 0.546278 2.77834
RightHand  10.4505 -22.4902 -51.2186
LeftUpLeg  -47.609 -6.36673 0.0808844
LeftLeg  108.832 -12.5475 -3.17582
LeftFoot  -8.1635 -0.0446088 0.454173
LeftToes  2.21007e-009 5.55039e-011 -9.07147e-011
25
root  -39.8053 20.6541 -2.44343 -26.7254 79.3845 -68.175
RightUpLeg  -34.7971 4.40002 2.30518
RightLeg  102.454 9.24381 8.0321
RightFoot  -13.5523 -0.0153984 -2.86965
RightToes  5.82063e-011 -1.59028e-015 9.93923e-017
Spine  55.156 0.0930234 3.72368
Spine1  -12.9527 1.93756 -0.0559456
HEad  -57.3964 8.92044 -0.897122
LeftShoulder1  9.93923e-017 0 1.22299e-017
LeftArm  9.92398 -61.7639 -84.4912
LeftForeArm  3.04904 1.13635 3.78781
LeftHand  -1.56833 1.27186 31.3229
RightShoulder  1.98785e-016 -4.96962e-017 1.55301e-017
RightArm  -0.534284 22.412 95.5401
RightForeArm  33.0952 1.10136 3.92231
RightHand  10.2365 -22.4255 -50.3216
LeftUpLeg  -44.7276 -5.20334 1.37225
LeftLeg  106.82 -12.718 -2.76398
LeftFoot  -8.41379 -0.0947667 1.61083
LeftToes  2.21007e-009 5.55039e-011 -9.07147e-011
26
root  -39.2056 20.8749 -3.06426 -33.5782 76.2512 -73.6568
RightUpLeg  -42.9272 4.6221 3.53883
RightLeg  110.736 7.90816 8.6573
RightFoot  -19.3219 -0.175429 -3.27656
RightToes  5.82063e-011 -1.59028e-015 9.93923e-017
Spine  57.0807 -0.295502 6.36468
Spine1  -12.8184 3.25738 -0.520964
HEad  -57.5368 8.97934 -1.7893
LeftShoulder1  9.93923e-017 0 1.22299e-017
LeftArm  11.3957 -61.147 -85.9948
LeftForeArm  1.84537 1.13411 3.73144
LeftHand  -1.88666 0.89555 33.7071
RightShoulder  1.98785e-016 -4.96962e-017 1.55301e-017
RightArm  7.88262 22.1387 93.6387
RightForeArm  27.6723 3.58812 5.28821
RightHand  9.70481 -22.0589 -48.6791
LeftUpLeg  -41.2654 -3.93897 2.73806
LeftLeg  104.657 -12.9021 -2.19807
LeftFoot  -8.64161 -0.134642 2.62444
LeftToes  2.21007e-009 5.55039e-011 -9.07147e-011
27
root  -38.6611 21.1025 -3.63591 -40.5332 73.6026 -78.4006
RightUpLeg  -50.9685 3.93608 5.38224
RightLeg  117.396 6.881 8.57195
RightFoot  -24.2197 -0.274358 -2.83575
RightToes  5.82063e-011 -1.59028e-015 9.93923e-017
Spine  59.1011 -1.48569 9.34173
Spine1  -11.4489 4.14356 -1.20681
HEad  -58.1961 8.96549 -3.19185
LeftShoulder1  9.93923e-017 0 1.22299e-017
LeftArm  12.871 -61.0803 -88.2192
LeftForeArm  1.45772 1.33552 4.36511
LeftHand  -2.02356 0.67293 34.1601
RightShoulder  1.98785e-016 -4.96962e-017 1.55301e-017
RightArm  28.492 21.7735 91.101
RightForeArm  10.879 10.9514 1.95577
RightHand  8.78215 -21.3214 -45.8848
LeftUpLeg  -37.0173 -3.39727 4.24307
LeftLeg  102.384 -13.0739 -1.50862
LeftFoot  -8.78809 -0.138626 2.79202
LeftToes  2.21007e-009 5.55039e-011 -9.07147e-011
